<svg  viewBox="0 0 50 50" fill="#ffffff" xmlns="http://www.w3.org/2000/svg">
  <path d="M10 37.0422C10 32.6158 10 28.1894 10 23.7629C10.0163 23.6997 10.0359 23.6365 10.0522 23.5732C10.2087 22.9509 10.6098 22.5182 11.0989 22.1588C11.7315 21.6962 12.4457 21.4033 13.1826 21.1637C14.4054 20.7709 15.6609 20.5579 16.9326 20.4514C18.2826 20.3383 19.6326 20.3383 20.9859 20.4581C21.3641 20.4914 21.7391 20.5346 22.1337 20.5746C22.1337 20.4814 22.1337 20.4015 22.1337 20.3183C22.1337 18.155 22.1435 15.9917 22.1272 13.8284C22.1207 13.0962 22.388 12.5171 22.913 12.0446C23.4804 11.532 24.1489 11.2092 24.8533 10.9496C26.5685 10.3272 28.3554 10.0876 30.1685 10.0177C31.512 9.96779 32.8522 10.021 34.1826 10.2074C35.4315 10.3838 36.6609 10.6567 37.8217 11.1792C38.1478 11.3257 38.4641 11.5021 38.7674 11.6984C39.3902 12.1045 39.863 12.6336 40 13.4091C40 19.2566 40 25.1009 40 30.9484C39.9804 31.015 39.9609 31.0849 39.9446 31.1514C39.788 31.7938 39.3674 32.2331 38.8554 32.5925C37.8446 33.3014 36.687 33.6409 35.5098 33.9071C34.4435 34.1467 33.3576 34.2632 32.2652 34.3165C31.0522 34.3764 29.8457 34.3531 28.6391 34.22C28.3815 34.1933 28.1272 34.1634 27.863 34.1334C27.8598 34.18 27.8533 34.2067 27.8533 34.2333C27.8533 35.0653 27.8565 35.8974 27.8533 36.7294C27.8533 36.8925 27.85 37.0622 27.8141 37.222C27.6902 37.8077 27.3185 38.2237 26.8717 38.5732C26.288 39.0325 25.6228 39.3253 24.9315 39.565C23.2457 40.1474 21.4978 40.367 19.7304 40.427C18.4391 40.4702 17.1478 40.417 15.863 40.2372C14.5685 40.0575 13.2967 39.7846 12.1033 39.2255C11.1413 38.7795 10.2446 38.2304 10 37.0422ZM18.6152 21.6629C18.1815 21.6928 17.4217 21.7294 16.6652 21.796C15.4522 21.9025 14.2587 22.1355 13.1109 22.5681C12.5663 22.7745 12.0315 23.0108 11.5978 23.4235C11.1576 23.8395 11.1609 24.1523 11.6011 24.565C12.0152 24.9544 12.5207 25.1907 13.0391 25.3904C14.5685 25.9762 16.1696 26.1958 17.7902 26.2857C19.2739 26.3689 20.7543 26.2923 22.2217 26.0594C23.2685 25.893 24.2957 25.6467 25.2674 25.1974C25.7043 24.9944 26.1283 24.7647 26.4348 24.372C26.6467 24.0991 26.6663 23.8595 26.4283 23.6132C26.2033 23.3802 25.9457 23.1639 25.6685 22.9975C24.938 22.5615 24.1261 22.3252 23.3043 22.1322C21.8728 21.796 20.412 21.6862 18.6152 21.6629ZM30.8565 15.9385C32.0141 15.9451 33.1685 15.8819 34.313 15.6989C35.3793 15.5258 36.4326 15.2828 37.4207 14.8169C37.8511 14.6139 38.2652 14.3809 38.5717 13.9948C38.6924 13.8417 38.7707 13.6654 38.6957 13.4723C38.6467 13.3492 38.5652 13.226 38.4739 13.1295C38.0435 12.6769 37.4924 12.424 36.925 12.211C35.3957 11.6319 33.8043 11.4089 32.1902 11.3257C30.788 11.2525 29.3924 11.3057 28 11.5154C26.9402 11.6751 25.8967 11.9048 24.9054 12.3308C24.4228 12.5371 23.9565 12.7734 23.6011 13.1861C23.3272 13.5023 23.3141 13.7519 23.6043 14.0481C23.8261 14.2744 24.0902 14.4774 24.3641 14.6372C25.1761 15.1031 26.0696 15.3461 26.9728 15.5424C28.2543 15.8187 29.5522 15.9152 30.8565 15.9385ZM11.275 25.9795C11.275 26.6684 11.2913 27.3573 11.2685 28.0429C11.2554 28.4124 11.3989 28.672 11.6565 28.8916C12.0185 29.2011 12.4326 29.4175 12.8663 29.5972C14.187 30.1397 15.5728 30.3893 16.9815 30.5091C18.9087 30.6755 20.8326 30.6189 22.737 30.2528C23.6402 30.0798 24.5239 29.8401 25.3587 29.4408C25.7141 29.271 26.0533 29.0713 26.3304 28.7818C26.5033 28.6021 26.6043 28.4024 26.5978 28.1328C26.5815 27.4738 26.5946 26.8148 26.5913 26.1525C26.5913 26.096 26.588 26.0361 26.5848 25.9795C26.262 26.1426 25.9587 26.3156 25.6424 26.4521C24.3804 27.0046 23.05 27.2874 21.6935 27.4472C19.6359 27.6868 17.575 27.6735 15.5239 27.354C14.4609 27.1909 13.4141 26.9513 12.4163 26.5286C12.0348 26.3656 11.6663 26.1692 11.275 25.9795ZM38.7152 15.5957C38.6565 15.6256 38.6239 15.6456 38.5913 15.6589C38.1609 15.8653 37.7402 16.1049 37.2935 16.2713C35.5391 16.9303 33.7065 17.1599 31.8511 17.2265C30.263 17.2864 28.6848 17.1799 27.1163 16.8903C26.1641 16.7139 25.2315 16.4677 24.3413 16.0716C24.025 15.9318 23.7217 15.7588 23.3989 15.5957C23.3989 15.6523 23.3989 15.7055 23.3989 15.7588C23.3989 16.4244 23.4054 17.09 23.3957 17.7556C23.3924 17.9953 23.4609 18.195 23.6207 18.3547C23.7511 18.4845 23.8848 18.6276 24.0413 18.7175C24.4196 18.9305 24.8011 19.1501 25.2054 19.3032C26.7446 19.899 28.3554 20.1053 29.9859 20.1952C31.3 20.2684 32.6109 20.2085 33.9185 20.0321C34.9978 19.8857 36.0576 19.6627 37.0717 19.25C37.5804 19.0436 38.0761 18.8007 38.4707 18.3913C38.6337 18.2216 38.7217 18.0352 38.7185 17.7856C38.7054 17.12 38.7152 16.4543 38.7152 15.7887C38.7152 15.7321 38.7152 15.6756 38.7152 15.5957ZM26.5848 34.5262C26.3989 34.6293 26.2424 34.7225 26.0793 34.8057C24.8533 35.4347 23.5359 35.7576 22.1891 35.9373C21.2598 36.0604 20.3207 36.1303 19.3848 36.1636C17.7217 36.2202 16.0685 36.0771 14.4348 35.7176C13.4076 35.4913 12.4098 35.1818 11.4902 34.6493C11.4217 34.6094 11.3533 34.5728 11.2717 34.5295C11.2717 35.245 11.2848 35.9306 11.2652 36.6196C11.2554 36.9624 11.3696 37.222 11.6207 37.4316C11.7217 37.5148 11.8196 37.6014 11.9304 37.6746C12.5467 38.0939 13.238 38.3402 13.9457 38.5399C15.3315 38.9293 16.7533 39.1057 18.188 39.1489C20.0402 39.2055 21.8761 39.0724 23.6761 38.6065C24.4717 38.4001 25.2478 38.1339 25.9424 37.6713C26.3598 37.3917 26.65 37.0622 26.5978 36.4798C26.5457 35.8374 26.5848 35.1984 26.5848 34.5262ZM26.5913 30.2428C26.5457 30.2661 26.5196 30.2728 26.5 30.2861C25.9424 30.6356 25.3391 30.8885 24.7163 31.0882C23.0207 31.6307 21.2728 31.8403 19.5022 31.8836C17.6272 31.9269 15.7717 31.7804 13.9457 31.3178C13.0391 31.0882 12.1587 30.782 11.3533 30.2794C11.3337 30.2661 11.3076 30.2628 11.2717 30.2528C11.2717 30.9784 11.2783 31.6873 11.2685 32.3961C11.2652 32.689 11.3728 32.9053 11.5717 33.0984C11.9924 33.5011 12.5043 33.744 13.0326 33.9471C14.3793 34.4696 15.7848 34.6926 17.213 34.809C18.7457 34.9322 20.275 34.8889 21.7978 34.6859C22.9685 34.5295 24.1163 34.2765 25.2022 33.7906C25.6326 33.5976 26.05 33.3813 26.363 33.0152C26.4641 32.8954 26.575 32.7323 26.5783 32.5858C26.6043 31.8104 26.5913 31.0416 26.5913 30.2428ZM38.7217 19.859C38.1315 20.2418 37.5283 20.4947 36.9087 20.6977C35.4674 21.167 33.987 21.3933 32.4804 21.4765C30.4554 21.5863 28.4467 21.4898 26.4609 21.0372C25.4826 20.8142 24.5337 20.5113 23.6565 20.0088C23.5783 19.9655 23.5 19.9189 23.4152 19.869C23.4152 20.1985 23.4152 20.508 23.4152 20.8209C23.5946 20.8641 23.7707 20.9041 23.9435 20.9507C24.9022 21.2069 25.838 21.5231 26.6696 22.0922C27.1326 22.4084 27.5467 22.7811 27.7359 23.3336C27.8337 23.6232 27.8565 23.9427 27.9217 24.2821C28.1793 24.3154 28.4826 24.362 28.7891 24.392C30.7652 24.5817 32.7348 24.5517 34.6946 24.1989C35.6533 24.0259 36.5924 23.7862 37.4793 23.3602C37.8674 23.1739 38.2424 22.9575 38.5326 22.6214C38.6663 22.465 38.7348 22.2919 38.7315 22.0789C38.7217 21.4233 38.7283 20.7709 38.7283 20.1153C38.7217 20.0388 38.7217 19.9689 38.7217 19.859ZM27.863 25.5801C27.863 26.5752 27.863 27.557 27.863 28.5388C27.9054 28.5455 27.938 28.5555 27.9674 28.5588C28.7826 28.632 29.5978 28.7319 30.4163 28.7685C31.9717 28.8384 33.5207 28.7119 35.05 28.4057C35.9826 28.2193 36.9022 27.9697 37.737 27.4871C38.0304 27.3174 38.288 27.0811 38.5489 26.8581C38.6793 26.745 38.7217 26.5752 38.7185 26.3888C38.712 25.8164 38.7152 25.2473 38.7152 24.6749C38.7152 24.5051 38.7152 24.3354 38.7152 24.1656C38.6891 24.1656 38.6761 24.1623 38.6663 24.1656C37.5413 24.8579 36.3022 25.2007 35.0272 25.4437C34.1043 25.62 33.1685 25.7199 32.2293 25.7632C31.0228 25.8197 29.8196 25.7998 28.6196 25.66C28.3717 25.64 28.1174 25.6101 27.863 25.5801ZM27.8533 29.8867C27.8533 29.94 27.8533 30.0032 27.8533 30.0664C27.8533 30.9551 27.8533 31.8437 27.8598 32.7323C27.8598 32.7689 27.9185 32.8355 27.9576 32.8421C28.6196 32.912 29.2848 33.0019 29.95 33.0351C31.4207 33.1117 32.888 33.0518 34.3457 32.8155C35.3435 32.6524 36.325 32.4261 37.2576 32.0167C37.7174 31.8137 38.1641 31.5841 38.5065 31.198C38.6239 31.0649 38.7152 30.9218 38.7152 30.7254C38.712 30.0032 38.7152 29.2843 38.712 28.5621C38.712 28.5255 38.7022 28.4922 38.6989 28.4623C38.363 28.6287 38.0435 28.8084 37.7109 28.9548C36.4946 29.4807 35.2098 29.7503 33.9054 29.9167C32.5685 30.0897 31.2217 30.133 29.875 30.0531C29.2098 30.0099 28.5413 29.9433 27.8533 29.8867Z" />
</svg>