<svg width="39" height="39" viewBox="0 0 39 39" fill="none" xmlns="http://www.w3.org/2000/svg">
<path d="M29.315 22.0187C28.6325 22.685 28.2425 23.6437 28.34 24.6675C28.4863 26.4225 30.095 27.7062 31.85 27.7062H34.9375V29.64C34.9375 33.0037 32.1913 35.75 28.8275 35.75H12.3988C12.9025 35.3275 13.3412 34.8075 13.6825 34.2225C14.2837 33.2475 14.625 32.0938 14.625 30.875C14.625 27.2837 11.7163 24.375 8.125 24.375C6.5975 24.375 5.18375 24.9113 4.0625 25.805V18.7038C4.0625 15.34 6.80874 12.5938 10.1725 12.5938H28.8275C32.1913 12.5938 34.9375 15.34 34.9375 18.7038V21.0438H31.655C30.745 21.0438 29.9162 21.4012 29.315 22.0187Z" stroke="white" stroke-opacity="0.6" stroke-width="1.5" stroke-linecap="round" stroke-linejoin="round"/>
<path d="M4.0625 20.1664V12.7402C4.0625 10.8064 5.24874 9.08388 7.05249 8.40138L19.955 3.52638C21.97 2.76263 24.1313 4.25768 24.1313 6.41893V12.5939" stroke="white" stroke-opacity="0.6" stroke-width="1.5" stroke-linecap="round" stroke-linejoin="round"/>
<path d="M36.6581 22.7014V26.049C36.6581 26.9427 35.9431 27.6739 35.0331 27.7064H31.8481C30.0931 27.7064 28.4843 26.4227 28.3381 24.6677C28.2406 23.6439 28.6306 22.6852 29.3131 22.0189C29.9143 21.4014 30.7431 21.0439 31.6531 21.0439H35.0331C35.9431 21.0764 36.6581 21.8076 36.6581 22.7014Z" stroke="white" stroke-opacity="0.6" stroke-width="1.5" stroke-linecap="round" stroke-linejoin="round"/>
<path d="M11.375 19.5H22.75" stroke="white" stroke-opacity="0.6" stroke-width="1.5" stroke-linecap="round" stroke-linejoin="round"/>
<path d="M14.625 30.875C14.625 32.0938 14.2837 33.2475 13.6825 34.2225C13.3412 34.8075 12.9025 35.3275 12.3988 35.75C11.2613 36.7737 9.76625 37.375 8.125 37.375C5.7525 37.375 3.68875 36.1075 2.5675 34.2225C1.96625 33.2475 1.625 32.0938 1.625 30.875C1.625 28.8275 2.5675 26.9913 4.0625 25.805C5.18375 24.9113 6.5975 24.375 8.125 24.375C11.7163 24.375 14.625 27.2837 14.625 30.875Z" stroke="white" stroke-opacity="0.6" stroke-width="1.5" stroke-miterlimit="10" stroke-linecap="round" stroke-linejoin="round"/>
<path d="M5.59229 30.8742L7.20102 32.4829L10.6623 29.2817" stroke="white" stroke-opacity="0.6" stroke-width="1.5" stroke-linecap="round" stroke-linejoin="round"/>
</svg>
