<svg width="39" height="39" viewBox="0 0 39 39" fill="none" xmlns="http://www.w3.org/2000/svg">
<path d="M35.75 12.0737V21.8237C35.75 24.2612 34.9375 26.2925 33.5075 27.7225C32.0937 29.1362 30.0625 29.9487 27.625 29.9487V33.41C27.625 34.71 26.1788 35.49 25.1063 34.775L17.875 29.9487H14.43C14.56 29.4612 14.625 28.9575 14.625 28.4375C14.625 26.78 13.9913 25.2525 12.9513 24.0988C11.7813 22.7663 10.0425 21.9375 8.125 21.9375C6.305 21.9375 4.64751 22.685 3.46126 23.9038C3.31501 23.2538 3.25 22.555 3.25 21.8237V12.0737C3.25 7.19873 6.5 3.94873 11.375 3.94873H27.625C32.5 3.94873 35.75 7.19873 35.75 12.0737Z" stroke="white" stroke-opacity="0.6" stroke-width="1.5" stroke-miterlimit="10" stroke-linecap="round" stroke-linejoin="round"/>
<path d="M14.625 28.4375C14.625 29.6562 14.2838 30.81 13.6825 31.785C13.3413 32.37 12.9025 32.89 12.3988 33.3125C11.2613 34.3362 9.76625 34.9375 8.125 34.9375C5.7525 34.9375 3.68873 33.67 2.56748 31.785C1.96623 30.81 1.625 29.6562 1.625 28.4375C1.625 26.39 2.5675 24.5538 4.0625 23.3675C5.18375 22.4738 6.5975 21.9375 8.125 21.9375C11.7163 21.9375 14.625 24.8462 14.625 28.4375Z" stroke="white" stroke-opacity="0.6" stroke-width="1.5" stroke-miterlimit="10" stroke-linecap="round" stroke-linejoin="round"/>
<path d="M5.59003 28.4377L7.19876 30.0464L10.66 26.8452" stroke="white" stroke-opacity="0.6" stroke-width="1.5" stroke-linecap="round" stroke-linejoin="round"/>
<path d="M13.8125 17.0625H25.1875" stroke="white" stroke-opacity="0.6" stroke-width="1.5" stroke-miterlimit="10" stroke-linecap="round" stroke-linejoin="round"/>
</svg>
