<svg  viewBox="0 0 50 50" fill="#ffffff" xmlns="http://www.w3.org/2000/svg">
<path d="M16.3172 42.1579C15.6669 41.9887 14.9898 41.8728 14.3663 41.6323C11.7828 40.6168 9.94769 38.0333 10.0011 35.2628C10.1437 27.851 13.5645 22.4703 20.1656 19.103C20.2903 19.0406 20.424 18.9872 20.5843 18.907C20.0944 18.1765 19.8717 17.4015 20.0409 16.5373C20.2102 15.6821 20.6734 15.0318 21.4039 14.533C21.3415 14.4261 21.2792 14.3281 21.2168 14.2301C20.2102 12.6889 19.2035 11.1656 18.1969 9.63333C17.7782 9.00083 18.0365 8.25253 18.7314 8.05654C18.767 8.04763 18.7937 8.02982 18.8294 8.02982C20.611 7.97637 22.4016 7.86056 23.9161 9.08992C24.2457 9.35717 24.6376 9.73132 25.0029 9.74023C25.3503 9.74914 25.7245 9.34826 26.063 9.09883C27.132 8.30598 28.3168 7.94073 29.6531 8.012C30.0718 8.03873 30.4994 8.02091 30.9181 8.012C31.3279 8.012 31.6575 8.16344 31.8624 8.52869C32.0762 8.90284 32.0227 9.27699 31.7911 9.62442C30.7844 11.1567 29.7778 12.68 28.7622 14.2123C28.6999 14.3013 28.6464 14.3993 28.5752 14.5151C29.2878 15.014 29.7778 15.6643 29.9382 16.5284C30.0985 17.3836 29.8936 18.1587 29.4036 18.8892C29.5016 18.9426 29.5818 18.9872 29.6709 19.0228C35.2119 21.7131 38.5971 26.0782 39.7285 32.1449C39.9957 33.5524 40.1116 34.9867 39.8621 36.4209C39.3365 39.3785 36.86 41.7303 33.8757 42.1045C33.8044 42.1134 33.7242 42.1401 33.653 42.1668C27.8803 42.1579 22.0988 42.1579 16.3172 42.1579ZM31.8713 40.1535C32.3523 40.1535 32.7443 40.1624 33.1452 40.1535C35.5059 40.1001 37.6261 38.2204 37.9201 35.8775C38.1161 34.372 37.929 32.8754 37.5459 31.4233C36.0939 25.8823 32.6374 22.1585 27.2478 20.2343C26.9806 20.1363 26.6866 20.1007 26.4015 20.0918C25.4661 20.074 24.5307 20.074 23.6043 20.0918C23.3192 20.1007 23.0252 20.1363 22.758 20.2254C16.335 22.31 11.961 28.3677 11.9877 35.1114C11.9966 37.2227 13.2972 39.1023 15.266 39.8506C16.1658 40.1892 17.0922 40.1892 18.0722 40.1446C17.9118 39.9664 17.796 39.8328 17.6802 39.6992C16.5934 38.4164 16.0321 36.9287 15.9876 35.245C15.9698 34.568 16.3706 34.1047 16.9675 34.0958C17.5644 34.0869 17.9742 34.5323 17.992 35.2094C18.0543 37.971 20.2636 40.1535 23.0252 40.1624C24.3348 40.1713 25.6443 40.1713 26.9627 40.1624C27.3013 40.1624 27.6576 40.1268 27.9872 40.0555C30.3212 39.5567 31.9336 37.579 31.996 35.1737C32.0138 34.5323 32.4325 34.0869 33.0116 34.0958C33.5906 34.1047 34.0182 34.568 33.9826 35.2094C33.9558 35.6815 33.9113 36.1626 33.8133 36.6258C33.5371 37.971 32.8868 39.1112 31.8713 40.1535ZM29.1097 10.0164C28.5306 10.0342 28.0407 10.1857 27.6041 10.4796C26.9538 10.9072 26.3035 11.3348 25.6621 11.7713C25.1989 12.0831 24.7624 12.0831 24.308 11.7624C23.6577 11.317 22.9985 10.8805 22.3393 10.4529C21.9028 10.1678 21.4306 10.0164 20.8783 10.0164C20.905 10.0877 20.9228 10.1322 20.9407 10.1589C21.7602 11.4061 22.5887 12.6622 23.4172 13.9094C23.4796 13.9984 23.6488 14.0697 23.7735 14.0697C24.5753 14.0875 25.3681 14.0697 26.1699 14.0786C26.3748 14.0786 26.4906 14.0163 26.5975 13.847C27.3725 12.6533 28.1565 11.4774 28.9404 10.2836C28.9939 10.2213 29.0384 10.1322 29.1097 10.0164ZM24.9584 18.0874C25.5998 18.0874 26.2412 18.0874 26.8915 18.0874C27.5418 18.0874 27.9872 17.6776 27.9961 17.0986C28.005 16.5195 27.5507 16.0919 26.9093 16.0919C25.6354 16.0919 24.3615 16.0919 23.0876 16.0919C22.4462 16.0919 21.9919 16.5195 22.0008 17.0986C22.0097 17.6776 22.4551 18.0874 23.1054 18.0874C23.7112 18.0874 24.3348 18.0874 24.9584 18.0874Z" />
<path d="M23.9874 34.5235C24.121 34.1138 23.8805 33.891 23.444 33.6594C22.9629 33.41 22.5531 33.0091 22.1701 32.6171C21.7781 32.2163 21.8494 31.6105 22.2503 31.2452C22.6422 30.88 23.2302 30.9067 23.64 31.2809C23.8983 31.5214 24.1567 31.7708 24.4595 31.949C24.8871 32.1984 25.3415 32.1272 25.6622 31.8243C25.9562 31.5481 26.0631 31.1383 25.9294 30.7553C25.778 30.3366 25.4306 30.105 24.9228 30.0871C23.5242 30.0337 22.3393 29.0538 22.0632 27.7264C21.7781 26.3189 22.4462 24.9648 23.7469 24.368C23.9339 24.2789 24.0141 24.1898 24.0052 23.976C23.9874 23.6998 23.9963 23.4237 24.0052 23.1475C24.0141 22.5328 24.4417 22.0874 25.0119 22.0874C25.582 22.0874 26.0007 22.5328 26.0007 23.1564C26.0007 23.4415 26.0096 23.7355 26.0007 24.0205C25.9918 24.1987 26.072 24.2521 26.2145 24.3412C26.6243 24.5818 27.043 24.8223 27.4082 25.1163C27.8804 25.5082 27.9071 26.1496 27.5151 26.5683C27.1321 26.9781 26.553 26.987 26.0809 26.604C25.8671 26.4347 25.6355 26.2654 25.386 26.1675C24.9851 25.9982 24.5932 26.0873 24.2903 26.408C24.0052 26.7109 23.925 27.0672 24.0854 27.4592C24.2547 27.869 24.5754 28.0828 25.0208 28.0917C25.9651 28.1184 26.749 28.4747 27.3459 29.2141C28.5663 30.7286 28.0496 32.9735 26.2858 33.802C26.072 33.8999 25.9918 34.0158 26.0096 34.2474C26.0274 34.5324 26.0185 34.8264 26.0096 35.1115C25.9918 35.6727 25.5464 36.1003 24.994 36.0914C24.4595 36.0825 24.0319 35.6638 24.0141 35.1115C23.9874 34.9422 23.9874 34.7819 23.9874 34.5235Z" />
</svg>
