<svg width="39" height="39" viewBox="0 0 39 39" fill="none" xmlns="http://www.w3.org/2000/svg">
<path d="M17.4713 27.3979V30.6967C17.4713 33.4917 14.8713 35.7505 11.6701 35.7505C8.46882 35.7505 5.85254 33.4917 5.85254 30.6967V27.3979C5.85254 30.1929 8.45257 32.1755 11.6701 32.1755C14.8713 32.1755 17.4713 30.1767 17.4713 27.3979Z" stroke="white" stroke-opacity="0.6" stroke-width="1.5" stroke-linecap="round" stroke-linejoin="round"/>
<path d="M17.4688 22.9286C17.4688 23.7411 17.2412 24.4885 16.8512 25.1385C15.8925 26.7148 13.9262 27.7061 11.6512 27.7061C9.37623 27.7061 7.40996 26.6985 6.45121 25.1385C6.06121 24.4885 5.8338 23.7411 5.8338 22.9286C5.8338 21.5311 6.48377 20.2798 7.52377 19.3698C8.58002 18.4436 10.0262 17.8911 11.635 17.8911C13.2437 17.8911 14.69 18.4598 15.7463 19.3698C16.8188 20.2636 17.4688 21.5311 17.4688 22.9286Z" stroke="white" stroke-opacity="0.6" stroke-width="1.5" stroke-linecap="round" stroke-linejoin="round"/>
<path d="M17.4713 22.9287V27.3975C17.4713 30.1925 14.8713 32.175 11.6701 32.175C8.46882 32.175 5.85254 30.1762 5.85254 27.3975V22.9287C5.85254 20.1337 8.45257 17.875 11.6701 17.875C13.2788 17.875 14.7251 18.4437 15.7814 19.3537C16.8214 20.2637 17.4713 21.5312 17.4713 22.9287Z" stroke="white" stroke-opacity="0.6" stroke-width="1.5" stroke-linecap="round" stroke-linejoin="round"/>
<path d="M35.75 17.8264V21.174C35.75 22.0677 35.035 22.7989 34.125 22.8314H30.94C29.185 22.8314 27.5763 21.5477 27.43 19.7927C27.3325 18.7689 27.7225 17.8102 28.405 17.1439C29.0063 16.5264 29.835 16.1689 30.745 16.1689H34.125C35.035 16.2014 35.75 16.9326 35.75 17.8264Z" stroke="white" stroke-opacity="0.6" stroke-width="1.5" stroke-linecap="round" stroke-linejoin="round"/>
<path d="M3.25 17.0625V13.8125C3.25 9.3925 5.915 6.305 10.0588 5.785C10.4813 5.72 10.92 5.6875 11.375 5.6875H26C26.4225 5.6875 26.8288 5.70373 27.2188 5.76873C31.4112 6.25623 34.125 9.36 34.125 13.8125V16.1688H30.745C29.835 16.1688 29.0062 16.5262 28.405 17.1437C27.7225 17.81 27.3325 18.7687 27.43 19.7925C27.5763 21.5475 29.185 22.8312 30.94 22.8312H34.125V25.1875C34.125 30.0625 30.875 33.3125 26 33.3125H21.9375" stroke="white" stroke-opacity="0.6" stroke-width="1.5" stroke-linecap="round" stroke-linejoin="round"/>
</svg>
