<svg width="39" height="39" viewBox="0 0 39 39" fill="none" xmlns="http://www.w3.org/2000/svg">
<path d="M24.8221 27.5831L20.0775 7.83927C19.7863 6.62769 18.5681 5.88153 17.3565 6.17269L4.19395 9.33576C2.98237 9.62692 2.23622 10.8451 2.52737 12.0567L7.27198 31.8006C7.56313 33.0122 8.78134 33.7583 9.99292 33.4672L23.1555 30.3041C24.3671 30.0129 25.1132 28.7947 24.8221 27.5831Z" stroke="white" stroke-opacity="0.6" stroke-width="1.5" stroke-linecap="round" stroke-linejoin="round"/>
<path d="M26.6975 32.3007L35.9276 14.2138C36.494 13.1039 36.0534 11.7449 34.9435 11.1785L22.8855 5.02514C21.7756 4.45873 20.4167 4.89933 19.8503 6.00923L10.6202 24.0962C10.0538 25.2061 10.4944 26.565 11.6043 27.1314L23.6622 33.2848C24.7721 33.8512 26.1311 33.4106 26.6975 32.3007Z" fill="#EAEAEA"/>
</svg>
