<svg  viewBox="0 0 50 50" fill="#ffffff" xmlns="http://www.w3.org/2000/svg">
  <path d="M24.3232 40.0028C24.013 39.9718 23.7068 39.9486 23.3967 39.9137C21.5941 39.7237 19.8767 39.2314 18.2641 38.4057C15.0737 36.7775 12.7361 34.3275 11.2669 31.0557C10.5846 29.5284 10.1931 27.9273 10.0535 26.2604C9.96822 25.2719 9.98761 24.2834 10.0923 23.2987C10.0962 23.2599 10.1078 23.2212 10.1155 23.1708C10.7086 23.2444 11.294 23.3142 11.8832 23.3879C11.4685 27.7451 12.7516 31.4938 15.8994 34.5446C17.9966 36.5798 20.5357 37.7622 23.4393 38.0956C29.9752 38.8515 35.5148 34.8548 37.4376 29.381C39.4379 23.6786 37.298 17.2978 32.2585 13.9833C27.2577 10.6921 20.9777 11.355 16.9499 14.5609C16.9848 14.5997 17.0158 14.6346 17.0507 14.6695C17.9384 15.5572 18.8262 16.4449 19.7139 17.3327C19.869 17.4877 19.8225 17.6777 19.6092 17.7475C19.5511 17.7668 19.4891 17.7707 19.4271 17.7707C17.2329 17.7707 15.0388 17.7707 12.8446 17.7707C12.5655 17.7707 12.4454 17.6505 12.4454 17.3676C12.4454 15.1734 12.4454 12.9793 12.4492 10.7851C12.4492 10.6921 12.4764 10.5913 12.5268 10.5138C12.6237 10.3704 12.7438 10.3665 12.864 10.4905C13.7479 11.3744 14.6317 12.2582 15.5156 13.1421C15.5544 13.1809 15.5776 13.2351 15.6086 13.2778C15.9304 13.0452 16.2095 12.832 16.5002 12.6304C18.4114 11.3279 20.5086 10.5022 22.7919 10.1649C30.3357 9.04069 37.5229 13.7701 39.4922 21.1395C39.7558 22.1319 39.9186 23.1436 39.9729 24.1709C39.9767 24.2252 39.9884 24.2795 40 24.3338C40 24.7834 40 25.2331 40 25.6789C39.9922 25.7371 39.9767 25.7991 39.9729 25.8572C39.9341 26.6519 39.8333 27.4428 39.6511 28.2181C38.6858 32.3699 36.3948 35.5836 32.7702 37.832C30.8784 39.0027 28.8122 39.685 26.5987 39.9176C26.2886 39.9486 25.9823 39.9757 25.6722 40.0067C25.2225 40.0028 24.7728 40.0028 24.3232 40.0028Z" />
  <path d="M25.4158 26.0665C25.4158 23.1901 25.4158 20.3409 25.4158 17.4761C25.912 17.4761 26.3966 17.4761 26.8928 17.4761C26.8928 20.8254 26.8928 24.1748 26.8928 27.5319C24.435 27.5319 21.9812 27.5319 19.5195 27.5319C19.5195 27.0434 19.5195 26.5627 19.5195 26.0627C21.4811 26.0665 23.4349 26.0665 25.4158 26.0665Z" />
</svg>