<svg  viewBox="0 0 50 50" fill="#ffffff" xmlns="http://www.w3.org/2000/svg">
  <path d="M33.2753 39.5413C33.2753 37.152 33.2753 34.7711 33.2836 32.3819V32.05H30.5702V38.8444H12.7715V10.7957H30.5785V17.5984H33.2836C33.2836 17.109 33.2836 16.6112 33.2836 16.1218C33.2836 14.8691 33.2836 13.5749 33.2836 12.2973C33.2836 11.9074 33.2753 11.5175 33.267 11.1359C33.2587 10.5386 33.2504 9.91637 33.2587 9.30247C33.267 8.84619 33.0761 8.52265 32.6198 8.2157C32.5534 8.16592 32.4372 8.13274 32.3044 8.11614C32.0887 8.08296 31.8647 8.08296 31.6323 8.08296L30.6283 8.07466C29.3006 8.06637 27.9232 8.04978 26.5624 8.04978C23.4009 8.04148 20.2395 8.04148 17.078 8.03318C15.3272 8.03318 13.568 8.03318 11.8172 8.02489C11.7508 8.02489 11.6927 8.01659 11.643 8.0083C11.6347 8.0083 11.6181 8.0083 11.6098 8H11.1285C11.0704 8.03318 11.004 8.07466 10.9294 8.10785C10.5145 8.29036 10.2406 8.57242 10.0747 8.98722C10.0498 9.04529 10.0249 9.08677 10 9.12825V27.6532C10 27.6863 10 27.7112 10.0083 27.7444C10.0166 27.8274 10.0166 27.902 10.0166 27.9933C10.0166 29.246 10.0249 30.4987 10.0249 31.7514C10.0332 33.9498 10.0332 36.1565 10.0415 38.355C10.0415 38.6287 10.0498 38.9025 10.0581 39.168C10.0664 39.5579 10.083 39.9644 10.0664 40.3709C10.0581 40.7774 10.224 41.076 10.6555 41.3913C10.7634 41.4742 10.8796 41.5157 11.0206 41.5157C11.1202 41.5157 11.2198 41.524 11.3193 41.524C11.5102 41.5323 11.6845 41.5406 11.867 41.5406L13.0453 41.5489C15.5014 41.5572 18.0489 41.5655 20.5465 41.5738C21.9488 41.5738 23.3511 41.5738 24.7535 41.5738C25.2015 41.5738 25.6496 41.5738 26.0977 41.5738C28.0477 41.5738 30.0308 41.5738 31.9891 41.5821C32.2796 41.5821 32.5202 41.4908 32.7691 41.2834C33.1093 41.0014 33.2504 40.711 33.2421 40.3626C33.2338 40.1884 33.2421 40.0224 33.2504 39.8565C33.2753 39.757 33.2753 39.6491 33.2753 39.5413Z" />
  <path d="M33.8023 28.5002L33.8105 28.9931C33.8188 29.6073 33.8188 30.2215 33.8271 30.8356C36.0914 28.7345 38.1988 26.6253 40.0003 24.799C39.9342 24.7343 39.8764 24.6697 39.8185 24.605C39.6036 24.3949 39.3888 24.1767 39.1822 23.9666C38.6285 23.409 38.0583 22.8352 37.488 22.2776C36.3228 21.1381 35.1328 19.9906 33.9758 18.8835L33.8353 18.7461C33.8271 19.3684 33.8188 19.9906 33.8105 20.6048L33.8023 21.1301C33.8023 21.1705 33.8023 21.219 33.8023 21.2594V21.6553H33.2238C32.447 21.6553 31.6702 21.6553 30.8851 21.6553C29.0752 21.6553 27.1993 21.6553 25.3564 21.6553C23.7863 21.6553 22.1417 21.6715 20.4724 21.6957C20.4228 21.6957 20.3732 21.6957 20.3319 21.6957C20.3319 21.7038 20.3319 21.7119 20.3319 21.72V21.8331C20.3071 23.506 20.3071 25.2111 20.2988 26.8516V26.8839C20.2988 27.0859 20.3071 27.288 20.3154 27.4981C20.3236 27.6274 20.3319 27.7567 20.3319 27.8941C20.4558 27.8941 20.5798 27.9022 20.7038 27.9022C20.9186 27.9102 21.1335 27.9183 21.3484 27.9183C24.4391 27.9264 27.5299 27.9264 30.6206 27.9345H33.4635H33.794V28.3547C33.8023 28.4032 33.8023 28.4517 33.8023 28.5002Z" />
</svg>