<svg width="39" height="39" viewBox="0 0 39 39" fill="none" xmlns="http://www.w3.org/2000/svg">
<path d="M19.5325 4.72852C14.1538 4.72852 9.78252 9.09977 9.78252 14.4785V19.1748C9.78252 20.166 9.36002 21.6773 8.85627 22.5223L6.98752 25.626C5.83377 27.5435 6.63002 29.6723 8.74252 30.3873C15.7463 32.7273 23.3025 32.7273 30.3063 30.3873C32.2725 29.7373 33.1338 27.4135 32.0613 25.626L30.1925 22.5223C29.705 21.6773 29.2825 20.166 29.2825 19.1748V14.4785C29.2825 9.11602 24.895 4.72852 19.5325 4.72852Z" stroke="white" stroke-opacity="0.6" stroke-width="1.5" stroke-miterlimit="10" stroke-linecap="round"/>
<path d="M22.5387 5.19984C22.035 5.05359 21.515 4.93984 20.9787 4.87484C19.4187 4.67984 17.9237 4.79359 16.5262 5.19984C16.9975 3.99734 18.1675 3.15234 19.5325 3.15234C20.8975 3.15234 22.0675 3.99734 22.5387 5.19984Z" stroke="white" stroke-opacity="0.6" stroke-width="1.5" stroke-miterlimit="10" stroke-linecap="round" stroke-linejoin="round"/>
<path d="M24.4075 30.9727C24.4075 33.6539 22.2137 35.8477 19.5325 35.8477C18.2 35.8477 16.965 35.2952 16.0875 34.4177C15.21 33.5402 14.6575 32.3052 14.6575 30.9727" stroke="white" stroke-opacity="0.6" stroke-width="1.5" stroke-miterlimit="10"/>
</svg>
