<svg  viewBox="0 0 50 50" fill="#ffffff" xmlns="http://www.w3.org/2000/svg">
  <path d="M24.4798 41.4547C23.9824 41.3063 23.4587 41.2278 22.9875 41.0096C21.4602 40.3114 20.5002 39.1158 20.0464 37.51C20.0115 37.3966 19.9853 37.2831 19.9504 37.1435C18.7024 37.1435 17.4544 37.1435 16.2152 37.1435C14.4959 37.1435 12.7679 37.1522 11.0487 37.1435C10.272 37.1435 9.79197 36.4977 10.0887 35.8344C10.1672 35.6598 10.3243 35.4766 10.4989 35.3893C12.0436 34.6039 12.829 33.2424 13.3614 31.6977C14.1119 29.5334 14.2952 27.2817 14.2516 25.004C14.2254 23.8607 14.2167 22.7174 14.269 21.5742C14.4261 18.3364 15.7876 15.692 18.3097 13.6673C18.9817 13.1263 19.7671 12.7248 20.5264 12.2972C20.7446 12.175 20.8406 12.0528 20.858 11.8084C21.085 9.52192 22.9438 7.91612 25.2478 8.00339C27.194 8.08194 28.922 9.67901 29.114 11.6164C29.1489 12.0092 29.2885 12.2012 29.6463 12.3844C33.015 14.0688 35.0659 16.7829 35.6157 20.5095C35.8339 21.9843 35.7554 23.5029 35.7466 25.004C35.7292 27.0723 35.8688 29.1145 36.4535 31.1043C36.7939 32.2737 37.2477 33.3995 38.103 34.2897C38.4695 34.6737 38.9321 34.9879 39.3771 35.2933C39.6913 35.5028 39.9619 35.7122 39.9968 36.1137C40.0404 36.7071 39.639 37.1347 38.9931 37.1435C37.9284 37.1522 36.855 37.1435 35.7903 37.1522C33.9576 37.1522 32.1248 37.1522 30.3009 37.1522C30.2223 37.1522 30.1525 37.1609 30.1438 37.1609C29.8732 37.7806 29.6725 38.4002 29.3496 38.9413C28.5205 40.3202 27.3074 41.1667 25.6929 41.4111C25.6405 41.4198 25.5882 41.446 25.5445 41.4634C25.178 41.4547 24.8289 41.4547 24.4798 41.4547ZM15.7614 30.1355C21.9315 30.1355 28.0842 30.1355 34.2019 30.1355C34.0972 29.1406 33.9401 28.1719 33.9052 27.2032C33.8528 25.6061 33.8616 24.0003 33.8703 22.4032C33.879 20.2738 33.3379 18.3277 32.0027 16.652C29.978 14.1037 27.2987 12.9779 24.0784 13.2572C22.0362 13.4317 20.2646 14.2957 18.8072 15.7444C17.1926 17.3415 16.2937 19.2789 16.1803 21.548C16.1279 22.7 16.1628 23.852 16.1366 25.0127C16.1192 26.025 16.1105 27.0374 16.0406 28.0497C15.997 28.7305 15.8574 29.4199 15.7614 30.1355ZM36.4099 35.2497C35.7117 34.3333 35.2317 33.3733 34.8826 32.3522C34.8041 32.1253 34.6994 32.0381 34.4463 32.0381C32.823 32.0555 31.1998 32.0468 29.5765 32.0468C24.89 32.0468 20.2035 32.0468 15.5257 32.0381C15.2988 32.0381 15.2203 32.1253 15.133 32.3173C14.8188 33.033 14.4959 33.7399 14.1468 34.438C14.0072 34.7086 13.8065 34.9529 13.6145 35.2409C21.2246 35.2497 28.7823 35.2497 36.4099 35.2497ZM21.9402 37.1522C22.2893 38.6271 23.7817 39.6656 25.2827 39.5434C26.7402 39.4213 27.9358 38.1035 28.0318 37.1522C26.0071 37.1522 23.9824 37.1522 21.9402 37.1522ZM27.1416 11.5292C26.9322 10.543 25.9198 9.8361 24.8464 9.89719C23.9126 9.94955 22.9613 10.7263 22.8828 11.5204C24.3053 11.2499 25.7191 11.2499 27.1416 11.5292Z" />
  <path d="M17.6563 21.5131C17.796 18.2753 20.1174 15.4389 23.4163 14.6971C23.9399 14.5837 24.4897 14.5488 25.0308 14.5313C25.5195 14.5139 25.9035 14.9066 25.9297 15.3866C25.9646 15.8753 25.6592 16.2942 25.1792 16.3815C24.6381 16.4775 24.0708 16.4862 23.5385 16.6258C21.3479 17.2018 19.7509 19.1305 19.5501 21.3909C19.5327 21.5567 19.524 21.7138 19.5152 21.8796C19.4716 22.4556 19.044 22.8571 18.5203 22.8221C17.988 22.7872 17.604 22.3334 17.6302 21.7662C17.6389 21.6876 17.6476 21.6003 17.6563 21.5131Z" />
</svg>