<svg width="39" height="39" viewBox="0 0 39 39" fill="none" xmlns="http://www.w3.org/2000/svg">
<path d="M5.15131 12.0898L19.5 20.3936L33.7513 12.1385" stroke="white" stroke-opacity="0.6" stroke-width="1.5" stroke-linecap="round" stroke-linejoin="round"/>
<path d="M19.5001 35.1162V20.3774" stroke="white" stroke-opacity="0.6" stroke-width="1.5" stroke-linecap="round" stroke-linejoin="round"/>
<path d="M16.1363 4.03L7.45876 8.8563C5.49251 9.94505 3.88379 12.675 3.88379 14.9175V24.0988C3.88379 26.3413 5.49251 29.0713 7.45876 30.16L16.1363 34.9863C17.9888 36.0101 21.0275 36.0101 22.88 34.9863L31.5575 30.16C33.5238 29.0713 35.1325 26.3413 35.1325 24.0988V14.9175C35.1325 12.675 33.5238 9.94505 31.5575 8.8563L22.88 4.03C21.0112 2.99 17.9888 2.99 16.1363 4.03Z" stroke="white" stroke-opacity="0.6" stroke-width="1.5" stroke-linecap="round" stroke-linejoin="round"/>
<path d="M27.625 21.5151V15.5677L12.2037 6.6626" stroke="white" stroke-opacity="0.6" stroke-width="1.5" stroke-linecap="round" stroke-linejoin="round"/>
</svg>
