<svg width="39" height="39" viewBox="0 0 39 39" fill="none" xmlns="http://www.w3.org/2000/svg">
<path d="M29.25 11.635C29.1525 11.6188 29.0388 11.6188 28.9413 11.635C26.6988 11.5538 24.9113 9.7175 24.9113 7.4425C24.9113 5.11875 26.78 3.25 29.1038 3.25C31.4275 3.25 33.2962 5.135 33.2962 7.4425C33.28 9.7175 31.4925 11.5538 29.25 11.635Z" stroke="white" stroke-opacity="0.6" stroke-width="1.5" stroke-linecap="round" stroke-linejoin="round"/>
<path d="M27.5763 23.4653C29.8025 23.839 32.2563 23.449 33.9788 22.2953C36.27 20.7678 36.27 18.2653 33.9788 16.7378C32.24 15.584 29.7538 15.194 27.5275 15.584" stroke="white" stroke-opacity="0.6" stroke-width="1.5" stroke-linecap="round" stroke-linejoin="round"/>
<path d="M9.70128 11.635C9.79878 11.6188 9.91253 11.6188 10.01 11.635C12.2525 11.5538 14.04 9.7175 14.04 7.4425C14.04 5.11875 12.1713 3.25 9.84753 3.25C7.52378 3.25 5.65503 5.135 5.65503 7.4425C5.67128 9.7175 7.45878 11.5538 9.70128 11.635Z" stroke="white" stroke-opacity="0.6" stroke-width="1.5" stroke-linecap="round" stroke-linejoin="round"/>
<path d="M11.375 23.4653C9.14877 23.839 6.69503 23.449 4.97253 22.2953C2.68128 20.7678 2.68128 18.2653 4.97253 16.7378C6.71128 15.584 9.19752 15.194 11.4238 15.584" stroke="white" stroke-opacity="0.6" stroke-width="1.5" stroke-linecap="round" stroke-linejoin="round"/>
<path d="M19.5 23.7737C19.4025 23.7574 19.2888 23.7574 19.1913 23.7737C16.9488 23.6924 15.1613 21.8562 15.1613 19.5812C15.1613 17.2574 17.03 15.3887 19.3538 15.3887C21.6775 15.3887 23.5463 17.2737 23.5463 19.5812C23.53 21.8562 21.7425 23.7087 19.5 23.7737Z" stroke="white" stroke-opacity="0.6" stroke-width="1.5" stroke-linecap="round" stroke-linejoin="round"/>
<path d="M14.7712 28.8925C12.48 30.42 12.48 32.9225 14.7712 34.45C17.3712 36.1887 21.6287 36.1887 24.2287 34.45C26.52 32.9225 26.52 30.42 24.2287 28.8925C21.645 27.17 17.3712 27.17 14.7712 28.8925Z" stroke="white" stroke-opacity="0.6" stroke-width="1.5" stroke-linecap="round" stroke-linejoin="round"/>
</svg>
