<svg  viewBox="0 0 50 50" fill="#ffffff" xmlns="http://www.w3.org/2000/svg">
<path d="M39.8388 23.0974C39.6841 22.2743 38.9508 21.4012 37.8882 21.4162C37.514 21.4212 37.1249 21.3962 36.7507 21.3763H36.7108C36.5761 21.052 36.4414 20.7228 36.3117 20.4035C36.167 20.0443 36.0174 19.6751 35.8627 19.3109C35.9675 19.2012 36.0722 19.0864 36.177 18.9767C36.3267 18.8121 36.4863 18.6425 36.641 18.4828C37.2945 17.8243 37.3943 16.7717 36.8754 15.9785C36.1072 14.7911 35.1593 13.8383 34.0568 13.1399C33.2137 12.6061 32.3606 12.6709 31.5973 13.3344C31.2831 13.6088 30.9837 13.8932 30.7044 14.1576C30.0458 13.8782 29.3873 13.6138 28.6141 13.3045C28.6091 12.9802 28.6041 12.5811 28.5991 12.182C28.5841 11.4487 28.2798 10.875 27.7161 10.5307C27.5165 10.411 27.2072 10.2514 26.863 10.2065C26.1696 10.1117 25.4761 10.0518 24.8875 10.0119C24.1641 9.95704 23.4806 10.1017 22.892 10.2414C22.0439 10.4409 21.4802 11.1094 21.4203 11.9875C21.3904 12.4265 21.3804 12.8705 21.3704 13.2995V13.3095C20.6021 13.6188 19.9237 13.8932 19.2951 14.1576C19.1554 14.0279 19.0157 13.9031 18.881 13.7784C18.7114 13.6238 18.5368 13.4691 18.3722 13.3095C17.6937 12.6659 16.6012 12.7108 15.9726 13.1249C15.4288 13.4841 14.7254 13.983 14.1417 14.6614C13.7875 15.0705 13.4283 15.5394 13.0392 16.0982C12.6501 16.6519 12.6351 17.7046 13.2288 18.3282C13.4034 18.5127 13.578 18.7023 13.7476 18.8919C13.8723 19.0316 14.002 19.1762 14.1317 19.3159C13.8623 19.9595 13.583 20.6429 13.2787 21.4012C12.9644 21.4012 12.6301 21.4012 12.2659 21.4062C11.1485 21.4212 10.47 21.95 10.1956 23.0276C10.0011 23.7759 9.99607 24.5342 10.0011 25.2525C10.0011 25.2825 10.0011 25.3124 10.0011 25.3473C10.0011 25.4271 10.0011 25.507 10.0011 25.5918L10.006 25.6616C10.031 26.1804 10.0559 26.7142 10.2455 27.2431C10.5498 28.0911 11.1535 28.5651 11.9916 28.61C12.3607 28.6299 12.7349 28.6349 13.0991 28.6399C13.1589 28.6399 13.2188 28.6399 13.2837 28.6399C13.558 29.3234 13.8424 30.0218 14.1317 30.7252L14.1267 30.7302C13.8474 31.0195 13.563 31.3189 13.2936 31.6331C12.6551 32.3715 12.5952 33.2046 13.109 34.0377C13.7775 35.1203 14.7005 36.0681 15.8479 36.8464C16.7309 37.445 17.5939 37.3902 18.4121 36.6868C18.7413 36.4024 19.0556 36.113 19.2951 35.8836C19.6892 36.0482 20.0883 36.2128 20.4724 36.3725C20.7668 36.4922 21.0761 36.6169 21.3754 36.7416C21.3804 36.9112 21.3804 37.0809 21.3854 37.2455C21.3854 37.45 21.3904 37.6596 21.3954 37.8691C21.4303 38.9018 21.9591 39.5553 22.9718 39.8047C23.6004 39.9594 24.2689 40.0342 25.0122 40.0342C25.102 40.0342 25.1968 40.0342 25.2916 40.0292C25.9152 40.0142 26.5787 39.9693 27.2222 39.7548C28.0553 39.4755 28.5243 38.8968 28.5742 38.0786C28.5891 37.8292 28.5991 37.5797 28.6091 37.3403C28.6191 37.1357 28.629 36.9212 28.639 36.7117C29.0132 36.557 29.3923 36.4074 29.7615 36.2577C30.0708 36.133 30.3901 36.0083 30.7044 35.8786C30.7942 35.9584 30.879 36.0382 30.9638 36.118C31.1533 36.2926 31.3379 36.4573 31.5125 36.6319C32.191 37.3103 33.2337 37.4151 34.0468 36.8863C35.2341 36.118 36.187 35.1652 36.8804 34.0627C37.4242 33.2046 37.3593 32.4064 36.6909 31.6232C36.4464 31.3388 36.182 31.0594 35.9326 30.795L35.8677 30.7302L35.8627 30.7252C35.8627 30.7202 35.8677 30.7102 35.8727 30.7052C36.167 30.0118 36.4414 29.3134 36.7008 28.6549C37.1448 28.6399 37.5888 28.6199 38.0328 28.6C38.4868 28.58 38.8759 28.4154 39.1952 28.1111C39.5045 27.8168 39.709 27.4476 39.7939 27.0335C39.8936 26.5496 39.9485 26.1455 39.9735 25.7614C40.0333 24.7686 39.9934 23.9006 39.8388 23.0974ZM34.9348 27.7319C34.7652 28.151 34.5856 28.575 34.416 28.9841C34.2663 29.3483 34.1067 29.7225 33.957 30.0916C33.6727 30.79 33.8074 31.4685 34.3511 32.0522C34.416 32.122 34.4808 32.1919 34.5457 32.2617C34.7502 32.4812 34.9647 32.7107 35.1693 32.9402C35.1892 32.9602 35.2042 32.9801 35.2142 32.9951C35.2042 33.01 35.1942 33.025 35.1793 33.045C34.5856 33.903 33.8473 34.6314 32.9942 35.2051C32.9842 35.2101 32.9792 35.2151 32.9692 35.2201C32.9593 35.2101 32.9493 35.2051 32.9393 35.1901C32.5901 34.8808 32.2409 34.5566 31.9416 34.2772C31.5874 33.9479 30.9787 33.6286 30.0907 33.9729C29.9012 34.0477 29.7216 34.1325 29.547 34.2123C29.3973 34.2822 29.2576 34.347 29.1129 34.4069C28.7388 34.5566 28.3347 34.7112 27.8009 34.9058C27.1025 35.1602 26.7084 35.674 26.6585 36.3974C26.6385 36.6718 26.6335 36.9512 26.6285 37.2156C26.6285 37.3403 26.6236 37.465 26.6236 37.5897C26.6186 37.7494 26.6086 37.8242 26.6036 37.8641C26.5687 37.8741 26.4988 37.894 26.3492 37.919C25.3714 38.0836 24.4684 38.0736 23.5904 37.889C23.5655 37.884 23.5405 37.8791 23.5156 37.8691C23.4607 37.8541 23.4208 37.8392 23.3909 37.8292C23.3859 37.8042 23.3859 37.7643 23.3809 37.7094C23.3709 37.5149 23.3659 37.3153 23.3609 37.1208C23.3559 36.8713 23.346 36.6169 23.331 36.3625C23.2861 35.699 22.9269 35.2101 22.2883 34.9557C21.9192 34.806 21.55 34.6513 21.1858 34.5017C20.7967 34.337 20.3926 34.1724 19.9935 34.0078C19.769 33.918 19.5695 33.8631 19.3799 33.8432C18.8411 33.7833 18.3822 33.938 18.013 34.3071C17.7186 34.5965 17.4143 34.8708 17.0951 35.1552C17.0601 35.1851 17.0352 35.2051 17.0152 35.2201C16.9953 35.2101 16.9753 35.1951 16.9454 35.1752C16.0724 34.5865 15.349 33.8482 14.7952 32.9801C14.7952 32.9801 14.7952 32.9751 14.7903 32.9751C14.7952 32.9701 14.7952 32.9701 14.8002 32.9651C15.1245 32.596 15.3789 32.3166 15.6284 32.0572C16.0325 31.6381 16.4116 30.9148 15.9177 29.8272C15.7581 29.473 15.6084 29.1088 15.4637 28.7497C15.349 28.4703 15.2293 28.1759 15.1045 27.8916C14.9698 27.5773 14.8302 27.3428 14.6655 27.1533C14.4061 26.8489 14.022 26.6793 13.553 26.6644C13.3236 26.6544 13.0891 26.6494 12.8646 26.6444C12.67 26.6394 12.4755 26.6344 12.2809 26.6294C12.2061 26.6294 12.1662 26.6244 12.1362 26.6195C12.1263 26.5945 12.1163 26.5546 12.1013 26.4848C11.9566 25.8861 11.9167 25.2226 11.9816 24.4444C12.0065 24.1351 12.0664 23.8208 12.1312 23.4965L12.1412 23.4416C12.1412 23.4267 12.1462 23.4167 12.1462 23.4117C12.1562 23.4117 12.1662 23.4117 12.1811 23.4067C12.5902 23.3818 12.9943 23.3718 13.3884 23.3718C14.2215 23.3718 14.8052 22.9428 15.1195 22.1096C15.4039 21.3464 15.6633 20.7277 15.9327 20.164C16.3268 19.3459 16.217 18.5976 15.6084 17.944C15.5485 17.8792 15.4837 17.8093 15.4238 17.7445C15.2243 17.53 15.0147 17.3055 14.8202 17.086C14.8052 17.071 14.7952 17.056 14.7853 17.0411C14.7952 17.0261 14.8052 17.0111 14.8202 16.9912C15.3889 16.1231 16.1272 15.3948 17.0152 14.831C17.0202 14.8261 17.0252 14.8261 17.0302 14.8211C17.0352 14.8261 17.0402 14.831 17.0452 14.831C17.3894 15.1354 17.7286 15.4447 18.0479 15.739C18.4121 16.0782 19.0357 16.4025 19.9386 16.0333C20.0833 15.9735 20.218 15.9086 20.3477 15.8438C20.4774 15.7839 20.5972 15.724 20.7169 15.6741C20.9663 15.5694 21.2257 15.4696 21.4802 15.3748C21.6947 15.29 21.9192 15.2052 22.1387 15.1154C23.0167 14.7612 23.3609 14.2524 23.3659 13.2995C23.3659 13.1748 23.3659 13.0551 23.3659 12.9303C23.3659 12.7108 23.3659 12.4813 23.3709 12.2618C23.3709 12.192 23.3809 12.1621 23.3859 12.1471C23.3958 12.1421 23.4308 12.1271 23.5056 12.1122C24.5931 11.9276 25.546 11.9376 26.424 12.1321C26.4789 12.1421 26.5388 12.1621 26.5986 12.182C26.5986 12.2668 26.6036 12.3516 26.6036 12.4364C26.6086 12.7408 26.6136 13.0551 26.6385 13.3693C26.6585 13.5988 26.6984 13.9381 26.8281 14.2524C26.9927 14.6614 27.337 14.9558 27.8109 15.1054C28.5991 15.3549 29.3873 15.6891 30.1456 16.0932C30.43 16.2429 30.8939 16.3526 31.4876 16.0134C31.767 15.8537 32.0014 15.6542 32.2359 15.4596C32.2908 15.4147 32.3457 15.3648 32.4055 15.3199C32.5153 15.2301 32.6101 15.1354 32.7048 15.0456C32.7797 14.9757 32.8495 14.9059 32.9194 14.846C32.9443 14.8261 32.9643 14.8111 32.9792 14.7961C32.9892 14.8011 32.9992 14.8111 33.0092 14.8161L33.0191 14.8211C33.4332 15.1304 33.8572 15.4497 34.2065 15.8088C34.5357 16.1431 34.8151 16.5222 35.1144 16.9213L35.1992 17.0361C34.8899 17.3953 34.5656 17.7495 34.2414 18.0987C33.9421 18.4229 33.6477 18.9817 33.9321 19.8148C34.0119 20.0443 34.1117 20.2538 34.2114 20.4584C34.2763 20.5931 34.3362 20.7178 34.391 20.8425C34.5706 21.2715 34.7353 21.7006 34.8849 22.1096C35.1892 22.9428 35.6632 23.297 36.5312 23.3418C36.7707 23.3518 37.0101 23.3568 37.2396 23.3618C37.3943 23.3668 37.5589 23.3668 37.7135 23.3718C37.7884 23.3768 37.8333 23.3818 37.8632 23.3818C37.8732 23.4067 37.8832 23.4516 37.8981 23.5314C38.0727 24.4244 38.0777 25.3423 37.9231 26.2553C37.8931 26.4199 37.8682 26.5297 37.8482 26.5845C37.7684 26.6045 37.5739 26.6045 37.509 26.6095C37.4242 26.6095 37.3394 26.6095 37.2496 26.6095C37.2097 26.6095 37.1648 26.6095 37.1249 26.6095H36.7008V26.6244C36.616 26.6244 36.5262 26.6294 36.4314 26.6344C35.7081 26.7242 35.1942 27.0934 34.9348 27.7319Z" />
<path d="M30.9597 19.211C29.3783 17.5897 27.283 16.6867 25.063 16.6768C25.053 16.6768 25.038 16.6768 25.0281 16.6768C22.8629 16.6768 20.8076 17.4999 19.2361 18.9965C17.6248 20.5281 16.7068 22.6034 16.6619 24.8383C16.617 27.0583 17.4252 29.1636 18.9468 30.765C20.4733 32.3714 22.5487 33.2893 24.7936 33.3442C24.8684 33.3442 24.9433 33.3492 25.0181 33.3492C27.2431 33.3492 29.3134 32.5011 30.8749 30.9496C32.4763 29.3582 33.3742 27.208 33.3343 25.0579C33.3643 22.9227 32.5012 20.7925 30.9597 19.211ZM18.6574 24.9681C18.6075 23.4166 19.2461 21.8401 20.4085 20.6328C21.6207 19.3757 23.2421 18.6772 24.9732 18.6623C24.9882 18.6623 25.0031 18.6623 25.0131 18.6623C26.7043 18.6623 28.3655 19.3807 29.5778 20.6378C30.7901 21.895 31.4137 23.5662 31.3338 25.3422C31.1842 28.7495 28.2308 31.4435 24.7437 31.3537C21.3663 31.2639 18.5776 28.3504 18.6524 24.988V24.978L18.6574 24.9681Z" />
</svg>
