<svg width="39" height="39" viewBox="0 0 39 39" fill="none" xmlns="http://www.w3.org/2000/svg">
<path d="M19.5 24.375C22.1924 24.375 24.375 22.1924 24.375 19.5C24.375 16.8076 22.1924 14.625 19.5 14.625C16.8076 14.625 14.625 16.8076 14.625 19.5C14.625 22.1924 16.8076 24.375 19.5 24.375Z" stroke="white" stroke-opacity="0.6" stroke-width="1.5" stroke-miterlimit="10" stroke-linecap="round" stroke-linejoin="round"/>
<path d="M3.25 20.9298V18.0698C3.25 16.3798 4.63125 14.9823 6.3375 14.9823C9.27875 14.9823 10.4812 12.9023 9.0025 10.3511C8.1575 8.88859 8.66125 6.98734 10.14 6.14234L12.9512 4.53359C14.235 3.76984 15.8925 4.22484 16.6562 5.50859L16.835 5.81734C18.2975 8.36859 20.7025 8.36859 22.1812 5.81734L22.36 5.50859C23.1238 4.22484 24.7813 3.76984 26.065 4.53359L28.8763 6.14234C30.355 6.98734 30.8587 8.88859 30.0137 10.3511C28.535 12.9023 29.7375 14.9823 32.6788 14.9823C34.3688 14.9823 35.7663 16.3636 35.7663 18.0698V20.9298C35.7663 22.6198 34.385 24.0173 32.6788 24.0173C29.7375 24.0173 28.535 26.0973 30.0137 28.6486C30.8587 30.1273 30.355 32.0123 28.8763 32.8573L26.065 34.4661C24.7813 35.2298 23.1238 34.7748 22.36 33.4911L22.1812 33.1823C20.7187 30.6311 18.3137 30.6311 16.835 33.1823L16.6562 33.4911C15.8925 34.7748 14.235 35.2298 12.9512 34.4661L10.14 32.8573C8.66125 32.0123 8.1575 30.1111 9.0025 28.6486C10.4812 26.0973 9.27875 24.0173 6.3375 24.0173C4.63125 24.0173 3.25 22.6198 3.25 20.9298Z" stroke="white" stroke-opacity="0.6" stroke-width="1.5" stroke-miterlimit="10" stroke-linecap="round" stroke-linejoin="round"/>
</svg>
