<svg  viewBox="0 0 50 50" fill="#ffffff" xmlns="http://www.w3.org/2000/svg">
<path d="M23.6161 38.2692C21.7988 38.2692 19.996 38.2692 18.1836 38.2692C18.1836 29.173 18.1836 20.0962 18.1836 11C19.996 11 21.7988 11 23.6161 11C23.6161 20.0865 23.6161 29.1681 23.6161 38.2692Z" />
<path d="M34.5723 19.1875C36.3896 19.1875 38.1874 19.1875 39.9999 19.1875C39.9999 25.5529 39.9999 31.9037 39.9999 38.2691C38.1874 38.2691 36.3896 38.2691 34.5723 38.2691C34.5723 31.9134 34.5723 25.5626 34.5723 19.1875Z" />
<path d="M31.8123 38.2695C29.9902 38.2695 28.1923 38.2695 26.375 38.2695C26.375 33.7262 26.375 29.2024 26.375 24.6543C28.1874 24.6543 29.9902 24.6543 31.8123 24.6543C31.8123 29.1927 31.8123 33.7214 31.8123 38.2695Z" />
<path d="M10 30.1108C11.8222 30.1108 13.62 30.1108 15.4325 30.1108C15.4325 32.8319 15.4325 35.5384 15.4325 38.2643C13.6249 38.2643 11.8222 38.2643 10 38.2643C10 35.5481 10 32.8367 10 30.1108Z" />
</svg>
