<svg viewBox="0 0 50 50" fill="#ffffff" xmlns="http://www.w3.org/2000/svg">
  <path d="M25.442 40.8245C25.1684 40.8245 24.8979 40.8245 24.6242 40.8245C24.5204 40.8088 24.4197 40.7931 24.3159 40.7805C23.1332 40.6169 22.0637 40.1638 21.0791 39.4935C20.2896 38.9586 19.607 38.301 18.9338 37.6339C18.852 37.5553 18.7734 37.5238 18.657 37.5238C16.7256 37.5175 14.7911 37.5049 12.8597 37.4923C12.4633 37.4892 12.133 37.2154 12.0858 36.8221C12.0481 36.5169 12.0292 36.2054 12.0229 35.8971C12.0009 34.7297 11.9726 33.5623 11.9758 32.3918C11.9758 32.052 11.8751 31.8412 11.6077 31.6241C10.0601 30.3875 9.57881 28.3296 10.3872 26.5424C10.6452 25.9697 11.0352 25.4946 11.485 25.0635C11.5826 24.9691 11.6266 24.8747 11.6266 24.7363C11.636 24.0283 11.658 23.3235 11.6738 22.6155C11.6989 21.5961 11.8531 20.5955 12.1299 19.6137C13.5957 14.4314 18.2638 10.4573 24.0989 10.0357C25.2722 9.95073 26.4581 10.0137 27.6157 10.2654C31.8245 11.1747 34.9606 13.5095 36.9612 17.3356C37.6092 18.5754 38.0213 19.8906 38.21 21.2814C38.3453 22.2851 38.3893 23.2952 38.3516 24.3052C38.3358 24.73 38.4617 25.0258 38.7573 25.331C39.8866 26.5015 40.2547 27.8954 39.8268 29.4718C39.3802 31.1206 37.8986 32.3666 36.1968 32.5271C35.6086 32.5838 35.0141 32.5712 34.4227 32.5837C34.3189 32.5869 34.2686 32.6152 34.2277 32.7128C33.8911 33.5655 33.4665 34.3836 32.9852 35.1702C32.0541 36.6931 30.9217 38.0461 29.4999 39.1348C28.5436 39.868 27.4961 40.4249 26.3039 40.6798C26.0208 40.7396 25.7283 40.7773 25.442 40.8245ZM21.6642 37.5332C21.661 37.5521 21.661 37.5679 21.6579 37.5867C21.7869 37.6748 21.9127 37.7692 22.0448 37.8542C22.8375 38.3639 23.6553 38.817 24.6305 38.8611C25.2219 38.8863 25.8164 38.8926 26.3857 38.688C27.3955 38.3293 28.2699 37.7472 29.0438 37.0235C30.4593 35.6988 31.5162 34.1193 32.2931 32.3509C32.4567 31.9765 32.6329 31.5737 32.658 31.1741C32.7147 30.3151 32.6769 29.4467 32.6706 28.5845C32.6706 28.5373 32.6203 28.4712 32.5763 28.4461C31.8496 28.0307 31.2079 27.5021 30.5977 26.9326C29.7106 26.105 28.9903 25.1422 28.336 24.129C28.2794 24.0441 28.2227 23.9591 28.1567 23.8616C28.012 23.9906 27.8799 24.1101 27.7478 24.2297C26.3071 25.5575 24.6619 26.5393 22.806 27.1717C21.2836 27.6909 19.7139 27.9395 18.1128 28.0307C17.8423 28.0464 17.5749 28.0622 17.3044 28.0811C17.3012 28.1283 17.2981 28.1534 17.2981 28.1786C17.2981 28.9904 17.3012 29.8022 17.3012 30.614C17.3012 30.9696 17.361 31.3094 17.4805 31.6429C17.9933 33.0526 18.7356 34.3332 19.651 35.5163C19.6856 35.5635 19.7737 35.5918 19.8366 35.5918C20.5003 35.5981 21.1672 35.595 21.8309 35.595C21.8812 35.595 21.9284 35.5887 21.9882 35.5855C21.9882 35.488 21.9882 35.4093 21.9882 35.3338C21.9945 34.7517 21.985 34.1696 22.0102 33.5906C22.0322 33.0872 22.3814 32.7568 22.8847 32.7537C24.1524 32.7442 25.42 32.7505 26.6877 32.7474C26.9834 32.7474 27.2036 32.8638 27.3892 33.0935C27.5307 33.2697 27.5779 33.4648 27.5779 33.6756C27.581 34.4968 27.581 35.3212 27.581 36.1425C27.581 36.347 27.5653 36.5515 27.5464 36.7529C27.5056 37.1808 27.2571 37.4263 26.8261 37.4577C26.6122 37.4735 26.3983 37.4861 26.1844 37.4892C25.0677 37.5049 23.9542 37.5207 22.8375 37.5332C22.4443 37.5364 22.0542 37.5332 21.6642 37.5332ZM32.6675 26.2089C32.6801 26.0453 32.6958 25.9194 32.7021 25.7904C32.7147 25.5198 32.7147 25.246 32.7367 24.9754C32.7618 24.6482 32.8751 24.365 33.1896 24.2014C33.5042 24.0378 33.542 23.9906 33.4759 23.6476C33.3627 23.0623 33.262 22.4708 33.0795 21.9076C31.922 18.3048 28.4587 16.0991 25.3382 16.0928C24.6682 16.0928 23.9951 16.0676 23.3376 16.2155C20.472 16.8637 18.4179 18.5282 17.1849 21.1964C16.8105 22.0051 16.6061 22.8641 16.5148 23.7514C16.4928 23.9622 16.5652 24.0975 16.7665 24.1825C17.0465 24.2989 17.21 24.5223 17.2383 24.8181C17.2729 25.1988 17.2792 25.5796 17.295 25.9603C17.2981 26.0201 17.295 26.0799 17.295 26.1459C17.3547 26.1459 17.3925 26.1459 17.4271 26.1459C18.8111 26.083 20.1795 25.9225 21.5163 25.545C23.6774 24.9345 25.549 23.849 27.0463 22.1593C27.2445 21.9359 27.4238 21.6967 27.6251 21.4765C28.1001 20.9573 28.7795 21.0926 29.0846 21.6149C29.308 21.9925 29.5282 22.3732 29.7484 22.754C30.4781 24.0157 31.3872 25.1296 32.4913 26.0862C32.5385 26.1239 32.592 26.1554 32.6675 26.2089ZM13.5454 24.0818C13.5894 24.0881 13.602 24.0944 13.6115 24.0913C13.7939 24.0755 13.9764 24.0598 14.1588 24.0378C14.5803 23.9906 14.5394 24.0787 14.5897 23.5972C14.7502 22.0271 15.2346 20.5671 16.0367 19.2078C17.9933 15.8882 21.7397 14.1104 24.6148 14.186C25.2627 14.2017 25.9233 14.1545 26.5587 14.252C28.5121 14.5541 30.2674 15.3376 31.7741 16.6277C33.7559 18.3268 34.9386 20.4822 35.3475 23.0592C35.3884 23.3109 35.4041 23.5689 35.445 23.8207C35.4545 23.8867 35.5111 23.9874 35.5583 23.9937C35.8445 24.0378 36.1371 24.0629 36.4233 24.0944C36.4328 24.0598 36.439 24.0472 36.439 24.0315C36.4548 23.119 36.4296 22.2096 36.2755 21.3066C35.769 18.3362 34.2529 15.9858 31.8653 14.186C30.1133 12.8676 28.1284 12.1376 25.9328 11.9802C24.6556 11.889 23.3943 11.9456 22.1486 12.2729C19.2421 13.0469 16.9521 14.68 15.3132 17.1909C14.3066 18.7327 13.731 20.4413 13.602 22.2851C13.5611 22.8798 13.5643 23.4777 13.5454 24.0818ZM34.6429 30.6329C35.0298 30.6329 35.4041 30.6298 35.7816 30.6329C36.1622 30.6392 36.5145 30.5385 36.8448 30.3497C38.0339 29.6638 38.2257 28.7261 37.9552 27.5745C37.7602 26.7375 37.0965 26.2278 36.2786 26.0358C35.7565 25.9131 35.1965 25.9603 34.6461 25.9288C34.6429 27.5273 34.6429 29.088 34.6429 30.6329ZM15.3604 25.9886C14.898 25.9886 14.4482 25.9634 14.0015 25.9949C12.9761 26.0641 11.8971 27.071 11.9663 28.1503C11.9726 28.2699 11.9695 28.3926 11.9663 28.5121C11.9349 29.5599 12.8817 30.4252 13.7971 30.5951C14.2972 30.6864 14.8194 30.6486 15.3321 30.6675C15.3415 30.6675 15.3478 30.6549 15.3636 30.6455C15.3604 29.088 15.3604 27.5336 15.3604 25.9886ZM13.9292 35.5855C15.0773 35.5855 16.2034 35.5855 17.3484 35.5855C17.3233 35.5352 17.3075 35.4974 17.2855 35.4628C16.7225 34.5724 16.2192 33.6536 15.8291 32.675C15.8134 32.6309 15.7316 32.59 15.6781 32.59C15.244 32.5838 14.8099 32.5869 14.3758 32.5869C14.2311 32.5869 14.0833 32.5869 13.9292 32.5869C13.9292 33.5906 13.9292 34.5818 13.9292 35.5855ZM23.929 34.651C23.929 34.9594 23.929 35.2709 23.929 35.5855C24.533 35.5855 25.1212 35.5855 25.7031 35.5855C25.7031 35.274 25.7031 34.9751 25.7031 34.651C25.0992 34.651 24.5172 34.651 23.929 34.651Z" />
</svg>