<svg width="25" height="25" viewBox="0 0 25 25" fill="none" xmlns="http://www.w3.org/2000/svg">
<path d="M11.3135 7.0293C11.3135 6.86523 11.3428 6.70996 11.4014 6.56348C11.4658 6.41699 11.5508 6.29102 11.6562 6.18555C11.7676 6.07422 11.8936 5.98926 12.0342 5.93066C12.1748 5.86621 12.3242 5.83398 12.4824 5.83398C12.6465 5.83398 12.8018 5.86621 12.9482 5.93066C13.0947 5.98926 13.2207 6.07422 13.3262 6.18555C13.4375 6.29102 13.5254 6.41699 13.5898 6.56348C13.6543 6.70996 13.6865 6.86523 13.6865 7.0293C13.6865 7.19336 13.6543 7.3457 13.5898 7.48633C13.5254 7.62695 13.4375 7.75293 13.3262 7.86426C13.2207 7.96973 13.0918 8.05469 12.9395 8.11914C12.793 8.17773 12.6406 8.20703 12.4824 8.20703C12.3242 8.20703 12.1748 8.17773 12.0342 8.11914C11.8936 8.05469 11.7676 7.96973 11.6562 7.86426C11.5508 7.75293 11.4658 7.62695 11.4014 7.48633C11.3428 7.3457 11.3135 7.19336 11.3135 7.0293ZM11.6475 19V9.86816H13.3525V19H11.6475Z" fill="#7F8798"/>
<circle cx="12.5" cy="12.5" r="12" stroke="#7F8798"/>
</svg>
