<svg width="40" height="40" viewBox="0 0 40 40" fill="none" xmlns="http://www.w3.org/2000/svg">
<path d="M20.06 0.217316V0.237021C20.0797 0.335543 20.0797 0.45377 20.0797 0.571996V14.7789C20.06 14.8577 20.0009 14.8774 19.9418 14.9168C19.528 15.1139 19.1339 15.2912 18.7201 15.4685C18.1486 15.7247 17.5575 16.0006 16.9861 16.2567L14.9171 17.2025C14.3457 17.4587 13.7743 17.7149 13.2225 17.971C12.5526 18.2863 11.8629 18.5818 11.193 18.8971C10.6216 19.1533 10.0501 19.4291 9.45899 19.6853C8.98609 19.902 8.51318 20.0991 8.05998 20.3158C8.02057 20.3355 7.98116 20.3552 7.94175 20.3552C7.92205 20.3552 7.92205 20.3552 7.90234 20.3355L8.43436 19.4488C9.45899 17.7543 10.4639 16.0794 11.4886 14.3848C12.5723 12.572 13.6757 10.7592 14.7595 8.94638C15.7644 7.2715 16.789 5.59663 17.794 3.92175C18.523 2.70007 19.2718 1.4784 20.0009 0.256725C20.0206 0.217316 20.0403 0.197612 20.0403 0.158203H20.06C20.0403 0.177908 20.06 0.197612 20.06 0.217316Z" fill="#8A92B2"/>
<path d="M32.1575 20.3355L32.1772 20.3552L29.2806 22.0695L20.1772 27.4488C20.1378 27.4685 20.0983 27.4882 20.0786 27.5079C20.0195 27.5079 20.0195 27.4488 20.0195 27.4291V27.2517V15.0744C20.0195 15.0153 20.0195 14.9365 20.0392 14.8773C20.0589 14.7985 20.1181 14.8182 20.1772 14.8379C20.4333 14.9562 20.7092 15.0744 20.9653 15.1926C21.7338 15.5473 22.5023 15.902 23.2708 16.237C23.9407 16.5325 24.591 16.8478 25.2609 17.1434C25.9309 17.4389 26.6008 17.7542 27.2708 18.0498C27.8422 18.3059 28.4333 18.5818 29.0048 18.8379C29.5762 19.0941 30.1673 19.37 30.7387 19.6261C31.1919 19.8232 31.6451 20.0399 32.0984 20.237C32.0984 20.2961 32.1181 20.3158 32.1575 20.3355Z" fill="#454A75"/>
<path d="M20.059 39.7436C20.059 39.7633 20.0393 39.783 20.0393 39.8027H20.0196C20.0196 39.7633 19.9802 39.7436 19.9605 39.7042C18.7388 37.9899 17.5171 36.2559 16.2955 34.5416C15.0541 32.7879 13.793 31.0145 12.5516 29.2608C11.3496 27.5662 10.128 25.8519 8.926 24.1573C8.61073 23.7041 8.29546 23.2706 7.98018 22.8174C7.96048 22.778 7.94078 22.7583 7.90137 22.6992C7.96048 22.6992 7.99989 22.7386 8.01959 22.7583C9.73388 23.7633 11.4285 24.7682 13.1427 25.7731C15.1132 26.9357 17.0639 28.0982 19.0344 29.2608L20.0393 29.8519C20.0787 29.8913 20.0787 29.9307 20.0787 29.9702V39.4677C20.0787 39.5662 20.0787 39.6647 20.059 39.7436Z" fill="#8A92B2"/>
<path d="M7.88184 20.375V20.3553C8.51238 20.0794 9.12322 19.7839 9.75376 19.508C10.5616 19.1336 11.3695 18.779 12.1774 18.4046C12.7882 18.1287 13.4188 17.8331 14.0296 17.5573C14.936 17.1435 15.8227 16.7494 16.7291 16.3356C17.34 16.0597 17.9508 15.7839 18.5813 15.4883C19.0148 15.2913 19.468 15.0942 19.9015 14.8972C19.9409 14.8775 20.0001 14.8578 20.0198 14.8184C20.0395 14.8184 20.0395 14.8381 20.0198 14.8578V27.3701C20.0198 27.4292 20.0001 27.4883 20.0395 27.5277C20.0001 27.5868 19.9607 27.5277 19.9409 27.508C19.7636 27.4095 19.5863 27.311 19.4089 27.1927C15.606 24.9464 11.7833 22.6804 7.98036 20.4341C7.96065 20.4144 7.92124 20.3947 7.88184 20.375Z" fill="#62688F"/>
<path d="M32.1184 22.6992H32.1381C32.1381 22.7386 32.0987 22.778 32.079 22.8174C28.4533 27.9209 24.8277 33.044 21.2021 38.1475C20.8277 38.6795 20.4336 39.2115 20.0593 39.7436C20.0396 39.7238 20.0396 39.7041 20.0396 39.6844V39.5662V30.0096V29.8322C20.8671 29.3396 21.675 28.8667 22.5026 28.3741C25.6947 26.4825 28.8868 24.6105 32.0593 22.7189C32.079 22.7386 32.0987 22.7189 32.1184 22.6992Z" fill="#62688F"/>
<path d="M20.0394 14.857V14.8176V14.6994V0.393964C20.0394 0.33485 20.0197 0.295441 20.0591 0.236328C24.0591 6.87672 28.0591 13.4974 32.0394 20.1378C32.0788 20.1969 32.1379 20.2757 32.1576 20.3546C31.8818 20.256 31.6256 20.1181 31.3695 19.9999C31.0542 19.8619 30.7192 19.7043 30.4039 19.5664C30.2069 19.4679 29.9902 19.389 29.7931 19.2905C29.4581 19.1329 29.1232 18.9949 28.7882 18.8373C28.5911 18.7585 28.3941 18.66 28.197 18.5615L26.8966 17.9703C26.6798 17.8718 26.4631 17.7733 26.2266 17.6748L25.2808 17.261C25.0837 17.1821 24.8867 17.0836 24.6897 16.9851L23.3892 16.394C23.1724 16.2954 22.9557 16.1969 22.7192 16.0984L21.7734 15.6846C21.5567 15.5861 21.3596 15.4876 21.1429 15.389C20.7685 15.2117 20.3941 15.0344 20 14.8767C20.0591 14.857 20.0394 14.857 20.0394 14.857Z" fill="#62688F"/>
</svg>
