<svg width="40" height="40" viewBox="0 0 40 40" fill="none" xmlns="http://www.w3.org/2000/svg">
<path d="M34.3544 7.76093L29.538 10.2148L6.28025 22.0612C6.20161 21.4613 6.16203 20.857 6.16179 20.252C6.16497 17.8383 6.7987 15.4672 8.00021 13.3737C9.20171 11.2802 10.9293 9.53686 13.0119 8.31647C15.0944 7.09607 17.4597 6.44092 19.8733 6.41591C22.287 6.39089 24.6653 6.99689 26.7727 8.17386L29.5295 6.76922L29.9408 6.55937C27.4154 4.72639 24.4323 3.62734 21.3213 3.3837C18.2103 3.14006 15.0926 3.76131 12.3126 5.1788C9.53262 6.59628 7.19868 8.7548 5.56875 11.4158C3.93881 14.0768 3.07634 17.1366 3.07666 20.2571C3.07666 20.6881 3.09302 21.1174 3.12574 21.545C3.17156 22.1505 3.03727 22.7561 2.73975 23.2855C2.44223 23.8149 1.99479 24.2444 1.45371 24.5201L0 25.2614V28.7188L4.27991 26.5374L5.66593 25.83L7.03165 25.1344L31.5502 12.6416L34.3053 11.2387L40 8.33632V4.88058L34.3544 7.76093Z" fill="black"/>
<path d="M40 11.7959L8.42444 27.8731L5.66932 29.2794L0 32.1682V35.6223L5.63039 32.7538L10.4468 30.2999L33.7282 18.4366C33.8069 19.0404 33.8465 19.6487 33.8467 20.2576C33.8452 22.6741 33.2116 25.0483 32.009 27.1444C30.8063 29.2404 29.0763 30.9855 26.9907 32.2062C24.9052 33.427 22.5366 34.0811 20.1201 34.1035C17.7036 34.1259 15.3233 33.5159 13.2154 32.3341L13.0462 32.4237L10.0575 33.9468C12.5824 35.7799 15.5648 36.8793 18.6753 37.1235C21.7858 37.3677 24.9033 36.7473 27.6832 35.3308C30.4632 33.9142 32.7975 31.7568 34.4281 29.0967C36.0588 26.4367 36.9223 23.3776 36.9233 20.2576C36.9233 19.8226 36.9064 19.3877 36.8743 18.9579C36.8285 18.3525 36.9626 17.7472 37.2598 17.2179C37.557 16.6885 38.004 16.2588 38.5446 15.9827L40 15.2415V11.7959Z" fill="black"/>
</svg>
