<svg width="40" height="40" viewBox="0 0 40 40" fill="none" xmlns="http://www.w3.org/2000/svg">
<path d="M23.4755 23.1152C23.2788 22.8201 22.9509 22.5906 22.5247 22.3283C22.0984 22.0988 21.5411 21.8365 20.8525 21.5742V28.1316C22.9181 27.8693 23.9673 26.8201 23.9673 24.9185C23.9673 24.4923 23.9345 24.1644 23.8689 23.9021C23.8034 23.6398 23.705 23.4103 23.4755 23.1152Z" fill="#0B223D"/>
<path d="M20 0C8.95082 0 0 8.95082 0 20C0 31.0492 8.95082 40 20 40C31.0492 40 40 31.0492 40 20C40 8.95082 31.0492 0 20 0ZM27.7377 27.9344C27.3443 28.7869 26.7869 29.4754 26.0656 29.9672C25.3443 30.4918 24.5574 30.8852 23.7049 31.1475C22.8525 31.4426 21.9016 31.6066 20.8525 31.6721V34.8852H19.2459V31.7049C17.7377 31.6393 16.3279 31.3771 14.9836 30.918C13.6393 30.459 12.5574 29.8361 11.7705 29.0492L13.5082 26.0984C14.1967 26.6557 15.1148 27.1148 16.1967 27.5082C17.2787 27.9016 18.2951 28.1311 19.2459 28.1967V21.0492C19.1148 21.0164 18.8852 20.9508 18.623 20.8525C18.3607 20.7541 18.0984 20.6885 17.9016 20.623C17.6721 20.5574 17.4754 20.4918 17.3115 20.4262C15.377 19.7049 13.9672 18.8197 13.082 17.8361C12.1967 16.8525 11.7705 15.4754 11.7705 13.7705C11.7705 11.8033 12.459 10.2951 13.8361 9.18033C15.2131 8.06557 17.0164 7.47541 19.2459 7.37705V5.04918H20.8525V7.37705C22.623 7.44262 24.0328 7.67213 25.082 8.06557C26.1311 8.4918 27.1148 9.14754 28.0984 10.0656L26 12.7869C24.7213 11.5738 23.0164 10.9508 20.8525 10.8852V17.4426C22.0984 17.8689 22.8852 18.1311 23.2131 18.2295C25.1475 18.9836 26.459 19.8689 27.2131 20.8525C27.9672 21.8361 28.3607 23.2131 28.3607 24.9836C28.3607 26.1311 28.1639 27.1148 27.7377 27.9344Z" fill="#0B223D"/>
<path d="M16.1638 13.6063C16.1638 14.4588 16.3605 15.0818 16.754 15.5408C17.1474 15.9998 17.9671 16.4588 19.2786 16.9178V10.9834C18.3277 11.1145 17.5737 11.4096 17.0163 11.8359C16.4261 12.2621 16.1638 12.8523 16.1638 13.6063Z" fill="#0B223D"/>
</svg>
