<svg width="23" height="23" viewBox="0 0 23 23" fill="none" xmlns="http://www.w3.org/2000/svg">
<path d="M11.514 17.1679C8.38921 17.1679 5.84717 14.6257 5.84717 11.5009C5.84717 8.37633 8.38921 5.83447 11.514 5.83447C14.6387 5.83447 17.1808 8.37633 17.1808 11.5009C17.1808 14.6257 14.6387 17.1679 11.514 17.1679ZM11.514 6.55322C8.7856 6.55322 6.56592 8.7729 6.56592 11.5009C6.56592 14.2293 8.78578 16.4492 11.514 16.4492C14.2422 16.4492 16.462 14.2293 16.462 11.5009C16.462 8.7729 14.2423 6.55322 11.514 6.55322Z" fill="#333333"/>
<path d="M11.5142 20.4999C11.3158 20.4999 11.1548 20.3389 11.1548 20.1405V18.2222C11.1548 18.0236 11.3158 17.8628 11.5142 17.8628C11.7125 17.8628 11.8735 18.0236 11.8735 18.2222V20.1405C11.8735 20.3387 11.7127 20.4999 11.5142 20.4999Z" fill="#333333"/>
<path d="M11.5142 5.13971C11.3158 5.13971 11.1548 4.97871 11.1548 4.78034V2.86182C11.1548 2.66344 11.3158 2.50244 11.5142 2.50244C11.7125 2.50244 11.8735 2.66344 11.8735 2.86182V4.78034C11.8735 4.97889 11.7127 5.13971 11.5142 5.13971Z" fill="#333333"/>
<path d="M20.1537 11.8604H18.2354C18.037 11.8604 17.876 11.6994 17.876 11.501C17.876 11.3026 18.037 11.1416 18.2354 11.1416H20.1537C20.3521 11.1416 20.5131 11.3026 20.5131 11.501C20.5131 11.6992 20.3522 11.8604 20.1537 11.8604Z" fill="#333333"/>
<path d="M4.79334 11.8604H2.875C2.67663 11.8604 2.51562 11.6994 2.51562 11.501C2.51562 11.3026 2.67663 11.1416 2.875 11.1416H4.79334C4.99172 11.1416 5.15272 11.3026 5.15272 11.501C5.15272 11.6992 4.99172 11.8604 4.79334 11.8604Z" fill="#333333"/>
<path d="M17.6228 17.9692C17.5308 17.9692 17.439 17.9342 17.3688 17.8639L16.0125 16.5075C15.8721 16.3671 15.8721 16.1396 16.0125 15.9993C16.1528 15.859 16.3803 15.859 16.5206 15.9993L17.8769 17.3558C18.0173 17.4961 18.0173 17.7236 17.8769 17.8639C17.8068 17.9342 17.7148 17.9692 17.6228 17.9692Z" fill="#333333"/>
<path d="M6.76151 7.10788C6.66951 7.10788 6.57769 7.07284 6.50743 7.00258L5.15115 5.64612C5.01081 5.50579 5.01081 5.27812 5.15115 5.13797C5.29149 4.99763 5.51897 4.99763 5.65931 5.13797L7.01559 6.49443C7.15592 6.63476 7.15592 6.86243 7.01559 7.00258C6.94533 7.07284 6.85351 7.10788 6.76151 7.10788Z" fill="#333333"/>
<path d="M16.2666 7.10788C16.1746 7.10788 16.0827 7.07284 16.0125 7.00258C15.8721 6.86225 15.8721 6.63458 16.0125 6.49443L17.3691 5.13797C17.5095 4.99763 17.7369 4.99763 17.8773 5.13797C18.0176 5.2783 18.0176 5.50597 17.8773 5.64612L16.5206 7.00258C16.4506 7.07284 16.3586 7.10788 16.2666 7.10788Z" fill="#333333"/>
<path d="M5.40523 17.9692C5.31323 17.9692 5.22141 17.9342 5.15115 17.8639C5.01081 17.7236 5.01081 17.4957 5.15115 17.3558L6.50761 15.9993C6.64795 15.859 6.87543 15.859 7.01577 15.9993C7.1561 16.1396 7.1561 16.3675 7.01577 16.5075L5.65931 17.8639C5.58905 17.9342 5.49723 17.9692 5.40523 17.9692Z" fill="#333333"/>
</svg>
